# xmcd
#
# Track frame offsets:
#       182
#       18662
#       36627
#
# Disc length: 699 seconds
#
# Revision: 0
# Processed by: cddbd v1.4PL0 Copyright (c) Steve Scherf et al.
# Submitted via: CD-DA_X-Tractor v0.21
#
DISCID=2402b903
DTITLE=The Jeff Healey Band - Stuck In The Middle With You
DYEAR=1900
DGENRE=
TTITLE0=Stuck In The Middle With You
TTITLE1=Badge
TTITLE2=For What It's Worth
EXTD=
EXTT0=
EXTT1=
EXTT2=
PLAYORDER=
